%TF.GenerationSoftware,KiCad,Pcbnew,(5.1.8)-1*%
%TF.CreationDate,2020-11-24T16:29:34+09:00*%
%TF.ProjectId,F411_PPG,46343131-5f50-4504-972e-6b696361645f,rev?*%
%TF.SameCoordinates,Original*%
%TF.FileFunction,Legend,Top*%
%TF.FilePolarity,Positive*%
%FSLAX46Y46*%
G04 Gerber Fmt 4.6, Leading zero omitted, Abs format (unit mm)*
G04 Created by KiCad (PCBNEW (5.1.8)-1) date 2020-11-24 16:29:34*
%MOMM*%
%LPD*%
G01*
G04 APERTURE LIST*
%ADD10C,0.120000*%
%ADD11C,0.150000*%
G04 APERTURE END LIST*
D10*
%TO.C,R16*%
X138415500Y-72135276D02*
X138415500Y-72644724D01*
X139460500Y-72135276D02*
X139460500Y-72644724D01*
%TO.C,FB1*%
X88900724Y-81519500D02*
X88391276Y-81519500D01*
X88900724Y-82564500D02*
X88391276Y-82564500D01*
%TO.C,C1*%
X79590000Y-71246267D02*
X79590000Y-70953733D01*
X80610000Y-71246267D02*
X80610000Y-70953733D01*
%TO.C,C2*%
X79640000Y-74553733D02*
X79640000Y-74846267D01*
X80660000Y-74553733D02*
X80660000Y-74846267D01*
%TO.C,C3*%
X80770000Y-80664267D02*
X80770000Y-80371733D01*
X81790000Y-80664267D02*
X81790000Y-80371733D01*
%TO.C,C4*%
X75803733Y-59540000D02*
X76096267Y-59540000D01*
X75803733Y-60560000D02*
X76096267Y-60560000D01*
%TO.C,C5*%
X71146267Y-60510000D02*
X70853733Y-60510000D01*
X71146267Y-59490000D02*
X70853733Y-59490000D01*
%TO.C,C6*%
X95532752Y-81307000D02*
X95010248Y-81307000D01*
X95532752Y-82777000D02*
X95010248Y-82777000D01*
%TO.C,C7*%
X108604267Y-61212000D02*
X108311733Y-61212000D01*
X108604267Y-62232000D02*
X108311733Y-62232000D01*
%TO.C,C8*%
X91872000Y-93899000D02*
X95957000Y-93899000D01*
X95957000Y-93899000D02*
X95957000Y-92029000D01*
X95957000Y-92029000D02*
X91872000Y-92029000D01*
%TO.C,C9*%
X108704767Y-54608000D02*
X108412233Y-54608000D01*
X108704767Y-55628000D02*
X108412233Y-55628000D01*
%TO.C,C10*%
X108704767Y-65534000D02*
X108412233Y-65534000D01*
X108704767Y-64514000D02*
X108412233Y-64514000D01*
%TO.C,C11*%
X108604267Y-67562000D02*
X108311733Y-67562000D01*
X108604267Y-68582000D02*
X108311733Y-68582000D01*
%TO.C,C12*%
X108604267Y-58164000D02*
X108311733Y-58164000D01*
X108604267Y-59184000D02*
X108311733Y-59184000D01*
%TO.C,C13*%
X87711000Y-85653000D02*
X87711000Y-89738000D01*
X89581000Y-85653000D02*
X87711000Y-85653000D01*
X89581000Y-89738000D02*
X89581000Y-85653000D01*
%TO.C,C14*%
X105973000Y-72563000D02*
X110058000Y-72563000D01*
X105973000Y-70693000D02*
X105973000Y-72563000D01*
X110058000Y-70693000D02*
X105973000Y-70693000D01*
%TO.C,C15*%
X108350267Y-76710000D02*
X108057733Y-76710000D01*
X108350267Y-75690000D02*
X108057733Y-75690000D01*
%TO.C,C16*%
X110058000Y-78821000D02*
X105973000Y-78821000D01*
X105973000Y-78821000D02*
X105973000Y-80691000D01*
X105973000Y-80691000D02*
X110058000Y-80691000D01*
%TO.C,C17*%
X130155733Y-72138000D02*
X130448267Y-72138000D01*
X130155733Y-71118000D02*
X130448267Y-71118000D01*
%TO.C,C18*%
X122172000Y-61360267D02*
X122172000Y-61067733D01*
X123192000Y-61360267D02*
X123192000Y-61067733D01*
%TO.C,C19*%
X138428000Y-61614267D02*
X138428000Y-61321733D01*
X139448000Y-61614267D02*
X139448000Y-61321733D01*
%TO.C,C20*%
X118366000Y-66186267D02*
X118366000Y-65893733D01*
X117346000Y-66186267D02*
X117346000Y-65893733D01*
%TO.C,C21*%
X138428000Y-66147733D02*
X138428000Y-66440267D01*
X139448000Y-66147733D02*
X139448000Y-66440267D01*
%TO.C,C22*%
X123192000Y-70719733D02*
X123192000Y-71012267D01*
X122172000Y-70719733D02*
X122172000Y-71012267D01*
%TO.C,C23*%
X134393000Y-72905252D02*
X134393000Y-72382748D01*
X135863000Y-72905252D02*
X135863000Y-72382748D01*
%TO.C,C24*%
X121947000Y-76736752D02*
X121947000Y-76214248D01*
X123417000Y-76736752D02*
X123417000Y-76214248D01*
%TO.C,C25*%
X138892233Y-97538000D02*
X139184767Y-97538000D01*
X138892233Y-96518000D02*
X139184767Y-96518000D01*
%TO.C,C26*%
X121918000Y-91078267D02*
X121918000Y-90785733D01*
X122938000Y-91078267D02*
X122938000Y-90785733D01*
%TO.C,D1*%
X101076000Y-92004000D02*
X98216000Y-92004000D01*
X98216000Y-92004000D02*
X98216000Y-93924000D01*
X98216000Y-93924000D02*
X101076000Y-93924000D01*
%TO.C,J1*%
X104414000Y-56042000D02*
X104414000Y-50922000D01*
X104414000Y-50922000D02*
X87794000Y-50922000D01*
X87794000Y-50922000D02*
X86794000Y-51922000D01*
X86794000Y-51922000D02*
X86794000Y-56042000D01*
X86794000Y-56042000D02*
X104414000Y-56042000D01*
X104714000Y-53032000D02*
X104714000Y-50622000D01*
X104714000Y-50622000D02*
X102304000Y-50622000D01*
%TO.C,J2*%
X79736000Y-93564000D02*
X79736000Y-98684000D01*
X79736000Y-98684000D02*
X86356000Y-98684000D01*
X86356000Y-98684000D02*
X87356000Y-97684000D01*
X87356000Y-97684000D02*
X87356000Y-93564000D01*
X87356000Y-93564000D02*
X79736000Y-93564000D01*
X79436000Y-96574000D02*
X79436000Y-98984000D01*
X79436000Y-98984000D02*
X81846000Y-98984000D01*
%TO.C,J3*%
X76362000Y-86086000D02*
X71242000Y-86086000D01*
X71242000Y-86086000D02*
X71242000Y-97706000D01*
X71242000Y-97706000D02*
X72242000Y-98706000D01*
X72242000Y-98706000D02*
X76362000Y-98706000D01*
X76362000Y-98706000D02*
X76362000Y-86086000D01*
X73352000Y-85786000D02*
X70942000Y-85786000D01*
X70942000Y-85786000D02*
X70942000Y-88196000D01*
%TO.C,R1*%
X77122500Y-72645276D02*
X77122500Y-73154724D01*
X76077500Y-72645276D02*
X76077500Y-73154724D01*
%TO.C,R2*%
X90932724Y-60466500D02*
X90423276Y-60466500D01*
X90932724Y-59421500D02*
X90423276Y-59421500D01*
%TO.C,R3*%
X97775500Y-87375276D02*
X97775500Y-87884724D01*
X98820500Y-87375276D02*
X98820500Y-87884724D01*
%TO.C,R4*%
X102122500Y-87884724D02*
X102122500Y-87375276D01*
X101077500Y-87884724D02*
X101077500Y-87375276D01*
%TO.C,R5*%
X142987500Y-55879276D02*
X142987500Y-56388724D01*
X144032500Y-55879276D02*
X144032500Y-56388724D01*
%TO.C,R6*%
X144032500Y-51053276D02*
X144032500Y-51562724D01*
X142987500Y-51053276D02*
X142987500Y-51562724D01*
%TO.C,R7*%
X127268500Y-52832724D02*
X127268500Y-52323276D01*
X126223500Y-52832724D02*
X126223500Y-52323276D01*
%TO.C,R8*%
X126223500Y-57150724D02*
X126223500Y-56641276D01*
X127268500Y-57150724D02*
X127268500Y-56641276D01*
%TO.C,R9*%
X130047276Y-74407500D02*
X130556724Y-74407500D01*
X130047276Y-75452500D02*
X130556724Y-75452500D01*
%TO.C,R10*%
X118378500Y-61468724D02*
X118378500Y-60959276D01*
X117333500Y-61468724D02*
X117333500Y-60959276D01*
%TO.C,R11*%
X142225500Y-61722724D02*
X142225500Y-61213276D01*
X143270500Y-61722724D02*
X143270500Y-61213276D01*
%TO.C,R12*%
X142225500Y-66548724D02*
X142225500Y-66039276D01*
X143270500Y-66548724D02*
X143270500Y-66039276D01*
%TO.C,R13*%
X143270500Y-72135276D02*
X143270500Y-72644724D01*
X142225500Y-72135276D02*
X142225500Y-72644724D01*
%TO.C,R14*%
X125490500Y-83311276D02*
X125490500Y-83820724D01*
X124445500Y-83311276D02*
X124445500Y-83820724D01*
%TO.C,R15*%
X123204500Y-66144224D02*
X123204500Y-65634776D01*
X122159500Y-66144224D02*
X122159500Y-65634776D01*
%TO.C,R17*%
X118378500Y-70612724D02*
X118378500Y-70103276D01*
X117333500Y-70612724D02*
X117333500Y-70103276D01*
%TO.C,R18*%
X118378500Y-74929276D02*
X118378500Y-75438724D01*
X117333500Y-74929276D02*
X117333500Y-75438724D01*
%TO.C,R19*%
X134874724Y-78500500D02*
X134365276Y-78500500D01*
X134874724Y-77455500D02*
X134365276Y-77455500D01*
%TO.C,R20*%
X127493500Y-83820724D02*
X127493500Y-83311276D01*
X128538500Y-83820724D02*
X128538500Y-83311276D01*
%TO.C,R21*%
X131303500Y-82699776D02*
X131303500Y-83209224D01*
X132348500Y-82699776D02*
X132348500Y-83209224D01*
%TO.C,R22*%
X114822500Y-87376724D02*
X114822500Y-86867276D01*
X113777500Y-87376724D02*
X113777500Y-86867276D01*
%TO.C,R23*%
X133452776Y-96505500D02*
X133962224Y-96505500D01*
X133452776Y-97550500D02*
X133962224Y-97550500D01*
%TO.C,R24*%
X131303500Y-90677276D02*
X131303500Y-91186724D01*
X132348500Y-90677276D02*
X132348500Y-91186724D01*
%TO.C,R25*%
X124103224Y-94473500D02*
X123593776Y-94473500D01*
X124103224Y-95518500D02*
X123593776Y-95518500D01*
%TO.C,R26*%
X143763276Y-97550500D02*
X144272724Y-97550500D01*
X143763276Y-96505500D02*
X144272724Y-96505500D01*
%TO.C,R27*%
X111520500Y-86867276D02*
X111520500Y-87376724D01*
X110475500Y-86867276D02*
X110475500Y-87376724D01*
%TO.C,R28*%
X124953500Y-91186724D02*
X124953500Y-90677276D01*
X125998500Y-91186724D02*
X125998500Y-90677276D01*
%TO.C,SW1*%
X70092000Y-79176000D02*
X76212000Y-79176000D01*
X76212000Y-79176000D02*
X76212000Y-82876000D01*
X76212000Y-82876000D02*
X70092000Y-82876000D01*
X70092000Y-82876000D02*
X70092000Y-79176000D01*
%TO.C,U1*%
X97378000Y-73944000D02*
X98328000Y-73944000D01*
X98328000Y-73944000D02*
X98328000Y-72994000D01*
X89058000Y-73944000D02*
X88108000Y-73944000D01*
X88108000Y-73944000D02*
X88108000Y-72994000D01*
X97378000Y-63724000D02*
X98328000Y-63724000D01*
X98328000Y-63724000D02*
X98328000Y-64674000D01*
X89058000Y-63724000D02*
X88108000Y-63724000D01*
X88108000Y-63724000D02*
X88108000Y-64674000D01*
X88108000Y-64674000D02*
X86768000Y-64674000D01*
%TO.C,U2*%
X94880000Y-86020000D02*
X93080000Y-86020000D01*
X93080000Y-89240000D02*
X95530000Y-89240000D01*
D11*
%TO.C,U3*%
X140706000Y-56610000D02*
X133106000Y-56610000D01*
X140706000Y-52610000D02*
X140706000Y-56610000D01*
X133106000Y-52610000D02*
X140706000Y-52610000D01*
X133106000Y-56610000D02*
X133106000Y-52610000D01*
%TO.C,U4*%
X116088000Y-56864000D02*
X116088000Y-52864000D01*
X116088000Y-52864000D02*
X123688000Y-52864000D01*
X123688000Y-52864000D02*
X123688000Y-56864000D01*
X123688000Y-56864000D02*
X116088000Y-56864000D01*
D10*
%TO.C,U5*%
X136632000Y-86614000D02*
X136632000Y-88564000D01*
X136632000Y-86614000D02*
X136632000Y-84664000D01*
X141752000Y-86614000D02*
X141752000Y-88564000D01*
X141752000Y-86614000D02*
X141752000Y-83164000D01*
%TO.C,U6*%
X121940000Y-83820000D02*
X121940000Y-80370000D01*
X121940000Y-83820000D02*
X121940000Y-85770000D01*
X116820000Y-83820000D02*
X116820000Y-81870000D01*
X116820000Y-83820000D02*
X116820000Y-85770000D01*
%TO.C,U7*%
X130048000Y-66060000D02*
X131998000Y-66060000D01*
X130048000Y-66060000D02*
X128098000Y-66060000D01*
X130048000Y-60940000D02*
X131998000Y-60940000D01*
X130048000Y-60940000D02*
X126598000Y-60940000D01*
%TO.C,Y1*%
X73180000Y-67580000D02*
X68220000Y-67550000D01*
X68220000Y-67550000D02*
X68170000Y-74570000D01*
X68170000Y-74570000D02*
X73130000Y-74540000D01*
X73190000Y-74570000D02*
X73190000Y-67580000D01*
%TO.C,Y2*%
X75414000Y-57598000D02*
X75424000Y-49528000D01*
X71554000Y-57598000D02*
X75414000Y-57598000D01*
X71564000Y-49528000D02*
X71554000Y-57598000D01*
X75354000Y-49548000D02*
X71564000Y-49528000D01*
%TO.C,R16*%
D11*
X140820380Y-73032857D02*
X140344190Y-73366190D01*
X140820380Y-73604285D02*
X139820380Y-73604285D01*
X139820380Y-73223333D01*
X139868000Y-73128095D01*
X139915619Y-73080476D01*
X140010857Y-73032857D01*
X140153714Y-73032857D01*
X140248952Y-73080476D01*
X140296571Y-73128095D01*
X140344190Y-73223333D01*
X140344190Y-73604285D01*
X140820380Y-72080476D02*
X140820380Y-72651904D01*
X140820380Y-72366190D02*
X139820380Y-72366190D01*
X139963238Y-72461428D01*
X140058476Y-72556666D01*
X140106095Y-72651904D01*
X139820380Y-71223333D02*
X139820380Y-71413809D01*
X139868000Y-71509047D01*
X139915619Y-71556666D01*
X140058476Y-71651904D01*
X140248952Y-71699523D01*
X140629904Y-71699523D01*
X140725142Y-71651904D01*
X140772761Y-71604285D01*
X140820380Y-71509047D01*
X140820380Y-71318571D01*
X140772761Y-71223333D01*
X140725142Y-71175714D01*
X140629904Y-71128095D01*
X140391809Y-71128095D01*
X140296571Y-71175714D01*
X140248952Y-71223333D01*
X140201333Y-71318571D01*
X140201333Y-71509047D01*
X140248952Y-71604285D01*
X140296571Y-71651904D01*
X140391809Y-71699523D01*
%TO.C,FB1*%
X87812666Y-83400571D02*
X87479333Y-83400571D01*
X87479333Y-83924380D02*
X87479333Y-82924380D01*
X87955523Y-82924380D01*
X88669809Y-83400571D02*
X88812666Y-83448190D01*
X88860285Y-83495809D01*
X88907904Y-83591047D01*
X88907904Y-83733904D01*
X88860285Y-83829142D01*
X88812666Y-83876761D01*
X88717428Y-83924380D01*
X88336476Y-83924380D01*
X88336476Y-82924380D01*
X88669809Y-82924380D01*
X88765047Y-82972000D01*
X88812666Y-83019619D01*
X88860285Y-83114857D01*
X88860285Y-83210095D01*
X88812666Y-83305333D01*
X88765047Y-83352952D01*
X88669809Y-83400571D01*
X88336476Y-83400571D01*
X89860285Y-83924380D02*
X89288857Y-83924380D01*
X89574571Y-83924380D02*
X89574571Y-82924380D01*
X89479333Y-83067238D01*
X89384095Y-83162476D01*
X89288857Y-83210095D01*
%TO.C,C1*%
X79027142Y-71266666D02*
X79074761Y-71314285D01*
X79122380Y-71457142D01*
X79122380Y-71552380D01*
X79074761Y-71695238D01*
X78979523Y-71790476D01*
X78884285Y-71838095D01*
X78693809Y-71885714D01*
X78550952Y-71885714D01*
X78360476Y-71838095D01*
X78265238Y-71790476D01*
X78170000Y-71695238D01*
X78122380Y-71552380D01*
X78122380Y-71457142D01*
X78170000Y-71314285D01*
X78217619Y-71266666D01*
X79122380Y-70314285D02*
X79122380Y-70885714D01*
X79122380Y-70600000D02*
X78122380Y-70600000D01*
X78265238Y-70695238D01*
X78360476Y-70790476D01*
X78408095Y-70885714D01*
%TO.C,C2*%
X81937142Y-74866666D02*
X81984761Y-74914285D01*
X82032380Y-75057142D01*
X82032380Y-75152380D01*
X81984761Y-75295238D01*
X81889523Y-75390476D01*
X81794285Y-75438095D01*
X81603809Y-75485714D01*
X81460952Y-75485714D01*
X81270476Y-75438095D01*
X81175238Y-75390476D01*
X81080000Y-75295238D01*
X81032380Y-75152380D01*
X81032380Y-75057142D01*
X81080000Y-74914285D01*
X81127619Y-74866666D01*
X81127619Y-74485714D02*
X81080000Y-74438095D01*
X81032380Y-74342857D01*
X81032380Y-74104761D01*
X81080000Y-74009523D01*
X81127619Y-73961904D01*
X81222857Y-73914285D01*
X81318095Y-73914285D01*
X81460952Y-73961904D01*
X82032380Y-74533333D01*
X82032380Y-73914285D01*
%TO.C,C3*%
X80207142Y-80684666D02*
X80254761Y-80732285D01*
X80302380Y-80875142D01*
X80302380Y-80970380D01*
X80254761Y-81113238D01*
X80159523Y-81208476D01*
X80064285Y-81256095D01*
X79873809Y-81303714D01*
X79730952Y-81303714D01*
X79540476Y-81256095D01*
X79445238Y-81208476D01*
X79350000Y-81113238D01*
X79302380Y-80970380D01*
X79302380Y-80875142D01*
X79350000Y-80732285D01*
X79397619Y-80684666D01*
X79302380Y-80351333D02*
X79302380Y-79732285D01*
X79683333Y-80065619D01*
X79683333Y-79922761D01*
X79730952Y-79827523D01*
X79778571Y-79779904D01*
X79873809Y-79732285D01*
X80111904Y-79732285D01*
X80207142Y-79779904D01*
X80254761Y-79827523D01*
X80302380Y-79922761D01*
X80302380Y-80208476D01*
X80254761Y-80303714D01*
X80207142Y-80351333D01*
%TO.C,C4*%
X75783333Y-58977142D02*
X75735714Y-59024761D01*
X75592857Y-59072380D01*
X75497619Y-59072380D01*
X75354761Y-59024761D01*
X75259523Y-58929523D01*
X75211904Y-58834285D01*
X75164285Y-58643809D01*
X75164285Y-58500952D01*
X75211904Y-58310476D01*
X75259523Y-58215238D01*
X75354761Y-58120000D01*
X75497619Y-58072380D01*
X75592857Y-58072380D01*
X75735714Y-58120000D01*
X75783333Y-58167619D01*
X76640476Y-58405714D02*
X76640476Y-59072380D01*
X76402380Y-58024761D02*
X76164285Y-58739047D01*
X76783333Y-58739047D01*
%TO.C,C5*%
X70833333Y-61787142D02*
X70785714Y-61834761D01*
X70642857Y-61882380D01*
X70547619Y-61882380D01*
X70404761Y-61834761D01*
X70309523Y-61739523D01*
X70261904Y-61644285D01*
X70214285Y-61453809D01*
X70214285Y-61310952D01*
X70261904Y-61120476D01*
X70309523Y-61025238D01*
X70404761Y-60930000D01*
X70547619Y-60882380D01*
X70642857Y-60882380D01*
X70785714Y-60930000D01*
X70833333Y-60977619D01*
X71738095Y-60882380D02*
X71261904Y-60882380D01*
X71214285Y-61358571D01*
X71261904Y-61310952D01*
X71357142Y-61263333D01*
X71595238Y-61263333D01*
X71690476Y-61310952D01*
X71738095Y-61358571D01*
X71785714Y-61453809D01*
X71785714Y-61691904D01*
X71738095Y-61787142D01*
X71690476Y-61834761D01*
X71595238Y-61882380D01*
X71357142Y-61882380D01*
X71261904Y-61834761D01*
X71214285Y-61787142D01*
%TO.C,C6*%
X95104833Y-84079142D02*
X95057214Y-84126761D01*
X94914357Y-84174380D01*
X94819119Y-84174380D01*
X94676261Y-84126761D01*
X94581023Y-84031523D01*
X94533404Y-83936285D01*
X94485785Y-83745809D01*
X94485785Y-83602952D01*
X94533404Y-83412476D01*
X94581023Y-83317238D01*
X94676261Y-83222000D01*
X94819119Y-83174380D01*
X94914357Y-83174380D01*
X95057214Y-83222000D01*
X95104833Y-83269619D01*
X95961976Y-83174380D02*
X95771500Y-83174380D01*
X95676261Y-83222000D01*
X95628642Y-83269619D01*
X95533404Y-83412476D01*
X95485785Y-83602952D01*
X95485785Y-83983904D01*
X95533404Y-84079142D01*
X95581023Y-84126761D01*
X95676261Y-84174380D01*
X95866738Y-84174380D01*
X95961976Y-84126761D01*
X96009595Y-84079142D01*
X96057214Y-83983904D01*
X96057214Y-83745809D01*
X96009595Y-83650571D01*
X95961976Y-83602952D01*
X95866738Y-83555333D01*
X95676261Y-83555333D01*
X95581023Y-83602952D01*
X95533404Y-83650571D01*
X95485785Y-83745809D01*
%TO.C,C7*%
X108291333Y-63509142D02*
X108243714Y-63556761D01*
X108100857Y-63604380D01*
X108005619Y-63604380D01*
X107862761Y-63556761D01*
X107767523Y-63461523D01*
X107719904Y-63366285D01*
X107672285Y-63175809D01*
X107672285Y-63032952D01*
X107719904Y-62842476D01*
X107767523Y-62747238D01*
X107862761Y-62652000D01*
X108005619Y-62604380D01*
X108100857Y-62604380D01*
X108243714Y-62652000D01*
X108291333Y-62699619D01*
X108624666Y-62604380D02*
X109291333Y-62604380D01*
X108862761Y-63604380D01*
%TO.C,C8*%
X93305333Y-95071142D02*
X93257714Y-95118761D01*
X93114857Y-95166380D01*
X93019619Y-95166380D01*
X92876761Y-95118761D01*
X92781523Y-95023523D01*
X92733904Y-94928285D01*
X92686285Y-94737809D01*
X92686285Y-94594952D01*
X92733904Y-94404476D01*
X92781523Y-94309238D01*
X92876761Y-94214000D01*
X93019619Y-94166380D01*
X93114857Y-94166380D01*
X93257714Y-94214000D01*
X93305333Y-94261619D01*
X93876761Y-94594952D02*
X93781523Y-94547333D01*
X93733904Y-94499714D01*
X93686285Y-94404476D01*
X93686285Y-94356857D01*
X93733904Y-94261619D01*
X93781523Y-94214000D01*
X93876761Y-94166380D01*
X94067238Y-94166380D01*
X94162476Y-94214000D01*
X94210095Y-94261619D01*
X94257714Y-94356857D01*
X94257714Y-94404476D01*
X94210095Y-94499714D01*
X94162476Y-94547333D01*
X94067238Y-94594952D01*
X93876761Y-94594952D01*
X93781523Y-94642571D01*
X93733904Y-94690190D01*
X93686285Y-94785428D01*
X93686285Y-94975904D01*
X93733904Y-95071142D01*
X93781523Y-95118761D01*
X93876761Y-95166380D01*
X94067238Y-95166380D01*
X94162476Y-95118761D01*
X94210095Y-95071142D01*
X94257714Y-94975904D01*
X94257714Y-94785428D01*
X94210095Y-94690190D01*
X94162476Y-94642571D01*
X94067238Y-94594952D01*
%TO.C,C9*%
X108391833Y-56905142D02*
X108344214Y-56952761D01*
X108201357Y-57000380D01*
X108106119Y-57000380D01*
X107963261Y-56952761D01*
X107868023Y-56857523D01*
X107820404Y-56762285D01*
X107772785Y-56571809D01*
X107772785Y-56428952D01*
X107820404Y-56238476D01*
X107868023Y-56143238D01*
X107963261Y-56048000D01*
X108106119Y-56000380D01*
X108201357Y-56000380D01*
X108344214Y-56048000D01*
X108391833Y-56095619D01*
X108868023Y-57000380D02*
X109058500Y-57000380D01*
X109153738Y-56952761D01*
X109201357Y-56905142D01*
X109296595Y-56762285D01*
X109344214Y-56571809D01*
X109344214Y-56190857D01*
X109296595Y-56095619D01*
X109248976Y-56048000D01*
X109153738Y-56000380D01*
X108963261Y-56000380D01*
X108868023Y-56048000D01*
X108820404Y-56095619D01*
X108772785Y-56190857D01*
X108772785Y-56428952D01*
X108820404Y-56524190D01*
X108868023Y-56571809D01*
X108963261Y-56619428D01*
X109153738Y-56619428D01*
X109248976Y-56571809D01*
X109296595Y-56524190D01*
X109344214Y-56428952D01*
%TO.C,C10*%
X107915642Y-66811142D02*
X107868023Y-66858761D01*
X107725166Y-66906380D01*
X107629928Y-66906380D01*
X107487071Y-66858761D01*
X107391833Y-66763523D01*
X107344214Y-66668285D01*
X107296595Y-66477809D01*
X107296595Y-66334952D01*
X107344214Y-66144476D01*
X107391833Y-66049238D01*
X107487071Y-65954000D01*
X107629928Y-65906380D01*
X107725166Y-65906380D01*
X107868023Y-65954000D01*
X107915642Y-66001619D01*
X108868023Y-66906380D02*
X108296595Y-66906380D01*
X108582309Y-66906380D02*
X108582309Y-65906380D01*
X108487071Y-66049238D01*
X108391833Y-66144476D01*
X108296595Y-66192095D01*
X109487071Y-65906380D02*
X109582309Y-65906380D01*
X109677547Y-65954000D01*
X109725166Y-66001619D01*
X109772785Y-66096857D01*
X109820404Y-66287333D01*
X109820404Y-66525428D01*
X109772785Y-66715904D01*
X109725166Y-66811142D01*
X109677547Y-66858761D01*
X109582309Y-66906380D01*
X109487071Y-66906380D01*
X109391833Y-66858761D01*
X109344214Y-66811142D01*
X109296595Y-66715904D01*
X109248976Y-66525428D01*
X109248976Y-66287333D01*
X109296595Y-66096857D01*
X109344214Y-66001619D01*
X109391833Y-65954000D01*
X109487071Y-65906380D01*
%TO.C,C11*%
X107815142Y-69859142D02*
X107767523Y-69906761D01*
X107624666Y-69954380D01*
X107529428Y-69954380D01*
X107386571Y-69906761D01*
X107291333Y-69811523D01*
X107243714Y-69716285D01*
X107196095Y-69525809D01*
X107196095Y-69382952D01*
X107243714Y-69192476D01*
X107291333Y-69097238D01*
X107386571Y-69002000D01*
X107529428Y-68954380D01*
X107624666Y-68954380D01*
X107767523Y-69002000D01*
X107815142Y-69049619D01*
X108767523Y-69954380D02*
X108196095Y-69954380D01*
X108481809Y-69954380D02*
X108481809Y-68954380D01*
X108386571Y-69097238D01*
X108291333Y-69192476D01*
X108196095Y-69240095D01*
X109719904Y-69954380D02*
X109148476Y-69954380D01*
X109434190Y-69954380D02*
X109434190Y-68954380D01*
X109338952Y-69097238D01*
X109243714Y-69192476D01*
X109148476Y-69240095D01*
%TO.C,C12*%
X107815142Y-60461142D02*
X107767523Y-60508761D01*
X107624666Y-60556380D01*
X107529428Y-60556380D01*
X107386571Y-60508761D01*
X107291333Y-60413523D01*
X107243714Y-60318285D01*
X107196095Y-60127809D01*
X107196095Y-59984952D01*
X107243714Y-59794476D01*
X107291333Y-59699238D01*
X107386571Y-59604000D01*
X107529428Y-59556380D01*
X107624666Y-59556380D01*
X107767523Y-59604000D01*
X107815142Y-59651619D01*
X108767523Y-60556380D02*
X108196095Y-60556380D01*
X108481809Y-60556380D02*
X108481809Y-59556380D01*
X108386571Y-59699238D01*
X108291333Y-59794476D01*
X108196095Y-59842095D01*
X109148476Y-59651619D02*
X109196095Y-59604000D01*
X109291333Y-59556380D01*
X109529428Y-59556380D01*
X109624666Y-59604000D01*
X109672285Y-59651619D01*
X109719904Y-59746857D01*
X109719904Y-59842095D01*
X109672285Y-59984952D01*
X109100857Y-60556380D01*
X109719904Y-60556380D01*
%TO.C,C13*%
X90753142Y-88780857D02*
X90800761Y-88828476D01*
X90848380Y-88971333D01*
X90848380Y-89066571D01*
X90800761Y-89209428D01*
X90705523Y-89304666D01*
X90610285Y-89352285D01*
X90419809Y-89399904D01*
X90276952Y-89399904D01*
X90086476Y-89352285D01*
X89991238Y-89304666D01*
X89896000Y-89209428D01*
X89848380Y-89066571D01*
X89848380Y-88971333D01*
X89896000Y-88828476D01*
X89943619Y-88780857D01*
X90848380Y-87828476D02*
X90848380Y-88399904D01*
X90848380Y-88114190D02*
X89848380Y-88114190D01*
X89991238Y-88209428D01*
X90086476Y-88304666D01*
X90134095Y-88399904D01*
X89848380Y-87495142D02*
X89848380Y-86876095D01*
X90229333Y-87209428D01*
X90229333Y-87066571D01*
X90276952Y-86971333D01*
X90324571Y-86923714D01*
X90419809Y-86876095D01*
X90657904Y-86876095D01*
X90753142Y-86923714D01*
X90800761Y-86971333D01*
X90848380Y-87066571D01*
X90848380Y-87352285D01*
X90800761Y-87447523D01*
X90753142Y-87495142D01*
%TO.C,C14*%
X107815142Y-70235142D02*
X107767523Y-70282761D01*
X107624666Y-70330380D01*
X107529428Y-70330380D01*
X107386571Y-70282761D01*
X107291333Y-70187523D01*
X107243714Y-70092285D01*
X107196095Y-69901809D01*
X107196095Y-69758952D01*
X107243714Y-69568476D01*
X107291333Y-69473238D01*
X107386571Y-69378000D01*
X107529428Y-69330380D01*
X107624666Y-69330380D01*
X107767523Y-69378000D01*
X107815142Y-69425619D01*
X108767523Y-70330380D02*
X108196095Y-70330380D01*
X108481809Y-70330380D02*
X108481809Y-69330380D01*
X108386571Y-69473238D01*
X108291333Y-69568476D01*
X108196095Y-69616095D01*
X109624666Y-69663714D02*
X109624666Y-70330380D01*
X109386571Y-69282761D02*
X109148476Y-69997047D01*
X109767523Y-69997047D01*
%TO.C,C15*%
X107561142Y-77987142D02*
X107513523Y-78034761D01*
X107370666Y-78082380D01*
X107275428Y-78082380D01*
X107132571Y-78034761D01*
X107037333Y-77939523D01*
X106989714Y-77844285D01*
X106942095Y-77653809D01*
X106942095Y-77510952D01*
X106989714Y-77320476D01*
X107037333Y-77225238D01*
X107132571Y-77130000D01*
X107275428Y-77082380D01*
X107370666Y-77082380D01*
X107513523Y-77130000D01*
X107561142Y-77177619D01*
X108513523Y-78082380D02*
X107942095Y-78082380D01*
X108227809Y-78082380D02*
X108227809Y-77082380D01*
X108132571Y-77225238D01*
X108037333Y-77320476D01*
X107942095Y-77368095D01*
X109418285Y-77082380D02*
X108942095Y-77082380D01*
X108894476Y-77558571D01*
X108942095Y-77510952D01*
X109037333Y-77463333D01*
X109275428Y-77463333D01*
X109370666Y-77510952D01*
X109418285Y-77558571D01*
X109465904Y-77653809D01*
X109465904Y-77891904D01*
X109418285Y-77987142D01*
X109370666Y-78034761D01*
X109275428Y-78082380D01*
X109037333Y-78082380D01*
X108942095Y-78034761D01*
X108894476Y-77987142D01*
%TO.C,C16*%
X107815142Y-78363142D02*
X107767523Y-78410761D01*
X107624666Y-78458380D01*
X107529428Y-78458380D01*
X107386571Y-78410761D01*
X107291333Y-78315523D01*
X107243714Y-78220285D01*
X107196095Y-78029809D01*
X107196095Y-77886952D01*
X107243714Y-77696476D01*
X107291333Y-77601238D01*
X107386571Y-77506000D01*
X107529428Y-77458380D01*
X107624666Y-77458380D01*
X107767523Y-77506000D01*
X107815142Y-77553619D01*
X108767523Y-78458380D02*
X108196095Y-78458380D01*
X108481809Y-78458380D02*
X108481809Y-77458380D01*
X108386571Y-77601238D01*
X108291333Y-77696476D01*
X108196095Y-77744095D01*
X109624666Y-77458380D02*
X109434190Y-77458380D01*
X109338952Y-77506000D01*
X109291333Y-77553619D01*
X109196095Y-77696476D01*
X109148476Y-77886952D01*
X109148476Y-78267904D01*
X109196095Y-78363142D01*
X109243714Y-78410761D01*
X109338952Y-78458380D01*
X109529428Y-78458380D01*
X109624666Y-78410761D01*
X109672285Y-78363142D01*
X109719904Y-78267904D01*
X109719904Y-78029809D01*
X109672285Y-77934571D01*
X109624666Y-77886952D01*
X109529428Y-77839333D01*
X109338952Y-77839333D01*
X109243714Y-77886952D01*
X109196095Y-77934571D01*
X109148476Y-78029809D01*
%TO.C,C17*%
X129659142Y-70555142D02*
X129611523Y-70602761D01*
X129468666Y-70650380D01*
X129373428Y-70650380D01*
X129230571Y-70602761D01*
X129135333Y-70507523D01*
X129087714Y-70412285D01*
X129040095Y-70221809D01*
X129040095Y-70078952D01*
X129087714Y-69888476D01*
X129135333Y-69793238D01*
X129230571Y-69698000D01*
X129373428Y-69650380D01*
X129468666Y-69650380D01*
X129611523Y-69698000D01*
X129659142Y-69745619D01*
X130611523Y-70650380D02*
X130040095Y-70650380D01*
X130325809Y-70650380D02*
X130325809Y-69650380D01*
X130230571Y-69793238D01*
X130135333Y-69888476D01*
X130040095Y-69936095D01*
X130944857Y-69650380D02*
X131611523Y-69650380D01*
X131182952Y-70650380D01*
%TO.C,C18*%
X121609142Y-61856857D02*
X121656761Y-61904476D01*
X121704380Y-62047333D01*
X121704380Y-62142571D01*
X121656761Y-62285428D01*
X121561523Y-62380666D01*
X121466285Y-62428285D01*
X121275809Y-62475904D01*
X121132952Y-62475904D01*
X120942476Y-62428285D01*
X120847238Y-62380666D01*
X120752000Y-62285428D01*
X120704380Y-62142571D01*
X120704380Y-62047333D01*
X120752000Y-61904476D01*
X120799619Y-61856857D01*
X121704380Y-60904476D02*
X121704380Y-61475904D01*
X121704380Y-61190190D02*
X120704380Y-61190190D01*
X120847238Y-61285428D01*
X120942476Y-61380666D01*
X120990095Y-61475904D01*
X121132952Y-60333047D02*
X121085333Y-60428285D01*
X121037714Y-60475904D01*
X120942476Y-60523523D01*
X120894857Y-60523523D01*
X120799619Y-60475904D01*
X120752000Y-60428285D01*
X120704380Y-60333047D01*
X120704380Y-60142571D01*
X120752000Y-60047333D01*
X120799619Y-59999714D01*
X120894857Y-59952095D01*
X120942476Y-59952095D01*
X121037714Y-59999714D01*
X121085333Y-60047333D01*
X121132952Y-60142571D01*
X121132952Y-60333047D01*
X121180571Y-60428285D01*
X121228190Y-60475904D01*
X121323428Y-60523523D01*
X121513904Y-60523523D01*
X121609142Y-60475904D01*
X121656761Y-60428285D01*
X121704380Y-60333047D01*
X121704380Y-60142571D01*
X121656761Y-60047333D01*
X121609142Y-59999714D01*
X121513904Y-59952095D01*
X121323428Y-59952095D01*
X121228190Y-59999714D01*
X121180571Y-60047333D01*
X121132952Y-60142571D01*
%TO.C,C19*%
X137865142Y-62110857D02*
X137912761Y-62158476D01*
X137960380Y-62301333D01*
X137960380Y-62396571D01*
X137912761Y-62539428D01*
X137817523Y-62634666D01*
X137722285Y-62682285D01*
X137531809Y-62729904D01*
X137388952Y-62729904D01*
X137198476Y-62682285D01*
X137103238Y-62634666D01*
X137008000Y-62539428D01*
X136960380Y-62396571D01*
X136960380Y-62301333D01*
X137008000Y-62158476D01*
X137055619Y-62110857D01*
X137960380Y-61158476D02*
X137960380Y-61729904D01*
X137960380Y-61444190D02*
X136960380Y-61444190D01*
X137103238Y-61539428D01*
X137198476Y-61634666D01*
X137246095Y-61729904D01*
X137960380Y-60682285D02*
X137960380Y-60491809D01*
X137912761Y-60396571D01*
X137865142Y-60348952D01*
X137722285Y-60253714D01*
X137531809Y-60206095D01*
X137150857Y-60206095D01*
X137055619Y-60253714D01*
X137008000Y-60301333D01*
X136960380Y-60396571D01*
X136960380Y-60587047D01*
X137008000Y-60682285D01*
X137055619Y-60729904D01*
X137150857Y-60777523D01*
X137388952Y-60777523D01*
X137484190Y-60729904D01*
X137531809Y-60682285D01*
X137579428Y-60587047D01*
X137579428Y-60396571D01*
X137531809Y-60301333D01*
X137484190Y-60253714D01*
X137388952Y-60206095D01*
%TO.C,C20*%
X116783142Y-66682857D02*
X116830761Y-66730476D01*
X116878380Y-66873333D01*
X116878380Y-66968571D01*
X116830761Y-67111428D01*
X116735523Y-67206666D01*
X116640285Y-67254285D01*
X116449809Y-67301904D01*
X116306952Y-67301904D01*
X116116476Y-67254285D01*
X116021238Y-67206666D01*
X115926000Y-67111428D01*
X115878380Y-66968571D01*
X115878380Y-66873333D01*
X115926000Y-66730476D01*
X115973619Y-66682857D01*
X115973619Y-66301904D02*
X115926000Y-66254285D01*
X115878380Y-66159047D01*
X115878380Y-65920952D01*
X115926000Y-65825714D01*
X115973619Y-65778095D01*
X116068857Y-65730476D01*
X116164095Y-65730476D01*
X116306952Y-65778095D01*
X116878380Y-66349523D01*
X116878380Y-65730476D01*
X115878380Y-65111428D02*
X115878380Y-65016190D01*
X115926000Y-64920952D01*
X115973619Y-64873333D01*
X116068857Y-64825714D01*
X116259333Y-64778095D01*
X116497428Y-64778095D01*
X116687904Y-64825714D01*
X116783142Y-64873333D01*
X116830761Y-64920952D01*
X116878380Y-65016190D01*
X116878380Y-65111428D01*
X116830761Y-65206666D01*
X116783142Y-65254285D01*
X116687904Y-65301904D01*
X116497428Y-65349523D01*
X116259333Y-65349523D01*
X116068857Y-65301904D01*
X115973619Y-65254285D01*
X115926000Y-65206666D01*
X115878380Y-65111428D01*
%TO.C,C21*%
X140725142Y-66936857D02*
X140772761Y-66984476D01*
X140820380Y-67127333D01*
X140820380Y-67222571D01*
X140772761Y-67365428D01*
X140677523Y-67460666D01*
X140582285Y-67508285D01*
X140391809Y-67555904D01*
X140248952Y-67555904D01*
X140058476Y-67508285D01*
X139963238Y-67460666D01*
X139868000Y-67365428D01*
X139820380Y-67222571D01*
X139820380Y-67127333D01*
X139868000Y-66984476D01*
X139915619Y-66936857D01*
X139915619Y-66555904D02*
X139868000Y-66508285D01*
X139820380Y-66413047D01*
X139820380Y-66174952D01*
X139868000Y-66079714D01*
X139915619Y-66032095D01*
X140010857Y-65984476D01*
X140106095Y-65984476D01*
X140248952Y-66032095D01*
X140820380Y-66603523D01*
X140820380Y-65984476D01*
X140820380Y-65032095D02*
X140820380Y-65603523D01*
X140820380Y-65317809D02*
X139820380Y-65317809D01*
X139963238Y-65413047D01*
X140058476Y-65508285D01*
X140106095Y-65603523D01*
%TO.C,C22*%
X124469142Y-71508857D02*
X124516761Y-71556476D01*
X124564380Y-71699333D01*
X124564380Y-71794571D01*
X124516761Y-71937428D01*
X124421523Y-72032666D01*
X124326285Y-72080285D01*
X124135809Y-72127904D01*
X123992952Y-72127904D01*
X123802476Y-72080285D01*
X123707238Y-72032666D01*
X123612000Y-71937428D01*
X123564380Y-71794571D01*
X123564380Y-71699333D01*
X123612000Y-71556476D01*
X123659619Y-71508857D01*
X123659619Y-71127904D02*
X123612000Y-71080285D01*
X123564380Y-70985047D01*
X123564380Y-70746952D01*
X123612000Y-70651714D01*
X123659619Y-70604095D01*
X123754857Y-70556476D01*
X123850095Y-70556476D01*
X123992952Y-70604095D01*
X124564380Y-71175523D01*
X124564380Y-70556476D01*
X123659619Y-70175523D02*
X123612000Y-70127904D01*
X123564380Y-70032666D01*
X123564380Y-69794571D01*
X123612000Y-69699333D01*
X123659619Y-69651714D01*
X123754857Y-69604095D01*
X123850095Y-69604095D01*
X123992952Y-69651714D01*
X124564380Y-70223142D01*
X124564380Y-69604095D01*
%TO.C,C23*%
X133805142Y-73286857D02*
X133852761Y-73334476D01*
X133900380Y-73477333D01*
X133900380Y-73572571D01*
X133852761Y-73715428D01*
X133757523Y-73810666D01*
X133662285Y-73858285D01*
X133471809Y-73905904D01*
X133328952Y-73905904D01*
X133138476Y-73858285D01*
X133043238Y-73810666D01*
X132948000Y-73715428D01*
X132900380Y-73572571D01*
X132900380Y-73477333D01*
X132948000Y-73334476D01*
X132995619Y-73286857D01*
X132995619Y-72905904D02*
X132948000Y-72858285D01*
X132900380Y-72763047D01*
X132900380Y-72524952D01*
X132948000Y-72429714D01*
X132995619Y-72382095D01*
X133090857Y-72334476D01*
X133186095Y-72334476D01*
X133328952Y-72382095D01*
X133900380Y-72953523D01*
X133900380Y-72334476D01*
X132900380Y-72001142D02*
X132900380Y-71382095D01*
X133281333Y-71715428D01*
X133281333Y-71572571D01*
X133328952Y-71477333D01*
X133376571Y-71429714D01*
X133471809Y-71382095D01*
X133709904Y-71382095D01*
X133805142Y-71429714D01*
X133852761Y-71477333D01*
X133900380Y-71572571D01*
X133900380Y-71858285D01*
X133852761Y-71953523D01*
X133805142Y-72001142D01*
%TO.C,C24*%
X121359142Y-77118357D02*
X121406761Y-77165976D01*
X121454380Y-77308833D01*
X121454380Y-77404071D01*
X121406761Y-77546928D01*
X121311523Y-77642166D01*
X121216285Y-77689785D01*
X121025809Y-77737404D01*
X120882952Y-77737404D01*
X120692476Y-77689785D01*
X120597238Y-77642166D01*
X120502000Y-77546928D01*
X120454380Y-77404071D01*
X120454380Y-77308833D01*
X120502000Y-77165976D01*
X120549619Y-77118357D01*
X120549619Y-76737404D02*
X120502000Y-76689785D01*
X120454380Y-76594547D01*
X120454380Y-76356452D01*
X120502000Y-76261214D01*
X120549619Y-76213595D01*
X120644857Y-76165976D01*
X120740095Y-76165976D01*
X120882952Y-76213595D01*
X121454380Y-76785023D01*
X121454380Y-76165976D01*
X120787714Y-75308833D02*
X121454380Y-75308833D01*
X120406761Y-75546928D02*
X121121047Y-75785023D01*
X121121047Y-75165976D01*
%TO.C,C25*%
X138395642Y-95955142D02*
X138348023Y-96002761D01*
X138205166Y-96050380D01*
X138109928Y-96050380D01*
X137967071Y-96002761D01*
X137871833Y-95907523D01*
X137824214Y-95812285D01*
X137776595Y-95621809D01*
X137776595Y-95478952D01*
X137824214Y-95288476D01*
X137871833Y-95193238D01*
X137967071Y-95098000D01*
X138109928Y-95050380D01*
X138205166Y-95050380D01*
X138348023Y-95098000D01*
X138395642Y-95145619D01*
X138776595Y-95145619D02*
X138824214Y-95098000D01*
X138919452Y-95050380D01*
X139157547Y-95050380D01*
X139252785Y-95098000D01*
X139300404Y-95145619D01*
X139348023Y-95240857D01*
X139348023Y-95336095D01*
X139300404Y-95478952D01*
X138728976Y-96050380D01*
X139348023Y-96050380D01*
X140252785Y-95050380D02*
X139776595Y-95050380D01*
X139728976Y-95526571D01*
X139776595Y-95478952D01*
X139871833Y-95431333D01*
X140109928Y-95431333D01*
X140205166Y-95478952D01*
X140252785Y-95526571D01*
X140300404Y-95621809D01*
X140300404Y-95859904D01*
X140252785Y-95955142D01*
X140205166Y-96002761D01*
X140109928Y-96050380D01*
X139871833Y-96050380D01*
X139776595Y-96002761D01*
X139728976Y-95955142D01*
%TO.C,C26*%
X121355142Y-91574857D02*
X121402761Y-91622476D01*
X121450380Y-91765333D01*
X121450380Y-91860571D01*
X121402761Y-92003428D01*
X121307523Y-92098666D01*
X121212285Y-92146285D01*
X121021809Y-92193904D01*
X120878952Y-92193904D01*
X120688476Y-92146285D01*
X120593238Y-92098666D01*
X120498000Y-92003428D01*
X120450380Y-91860571D01*
X120450380Y-91765333D01*
X120498000Y-91622476D01*
X120545619Y-91574857D01*
X120545619Y-91193904D02*
X120498000Y-91146285D01*
X120450380Y-91051047D01*
X120450380Y-90812952D01*
X120498000Y-90717714D01*
X120545619Y-90670095D01*
X120640857Y-90622476D01*
X120736095Y-90622476D01*
X120878952Y-90670095D01*
X121450380Y-91241523D01*
X121450380Y-90622476D01*
X120450380Y-89765333D02*
X120450380Y-89955809D01*
X120498000Y-90051047D01*
X120545619Y-90098666D01*
X120688476Y-90193904D01*
X120878952Y-90241523D01*
X121259904Y-90241523D01*
X121355142Y-90193904D01*
X121402761Y-90146285D01*
X121450380Y-90051047D01*
X121450380Y-89860571D01*
X121402761Y-89765333D01*
X121355142Y-89717714D01*
X121259904Y-89670095D01*
X121021809Y-89670095D01*
X120926571Y-89717714D01*
X120878952Y-89765333D01*
X120831333Y-89860571D01*
X120831333Y-90051047D01*
X120878952Y-90146285D01*
X120926571Y-90193904D01*
X121021809Y-90241523D01*
%TO.C,D1*%
X99337904Y-91766380D02*
X99337904Y-90766380D01*
X99576000Y-90766380D01*
X99718857Y-90814000D01*
X99814095Y-90909238D01*
X99861714Y-91004476D01*
X99909333Y-91194952D01*
X99909333Y-91337809D01*
X99861714Y-91528285D01*
X99814095Y-91623523D01*
X99718857Y-91718761D01*
X99576000Y-91766380D01*
X99337904Y-91766380D01*
X100861714Y-91766380D02*
X100290285Y-91766380D01*
X100576000Y-91766380D02*
X100576000Y-90766380D01*
X100480761Y-90909238D01*
X100385523Y-91004476D01*
X100290285Y-91052095D01*
%TO.C,J1*%
X95270666Y-56584380D02*
X95270666Y-57298666D01*
X95223047Y-57441523D01*
X95127809Y-57536761D01*
X94984952Y-57584380D01*
X94889714Y-57584380D01*
X96270666Y-57584380D02*
X95699238Y-57584380D01*
X95984952Y-57584380D02*
X95984952Y-56584380D01*
X95889714Y-56727238D01*
X95794476Y-56822476D01*
X95699238Y-56870095D01*
%TO.C,J2*%
X83212666Y-91926380D02*
X83212666Y-92640666D01*
X83165047Y-92783523D01*
X83069809Y-92878761D01*
X82926952Y-92926380D01*
X82831714Y-92926380D01*
X83641238Y-92021619D02*
X83688857Y-91974000D01*
X83784095Y-91926380D01*
X84022190Y-91926380D01*
X84117428Y-91974000D01*
X84165047Y-92021619D01*
X84212666Y-92116857D01*
X84212666Y-92212095D01*
X84165047Y-92354952D01*
X83593619Y-92926380D01*
X84212666Y-92926380D01*
%TO.C,J3*%
X76904380Y-92729333D02*
X77618666Y-92729333D01*
X77761523Y-92776952D01*
X77856761Y-92872190D01*
X77904380Y-93015047D01*
X77904380Y-93110285D01*
X76904380Y-92348380D02*
X76904380Y-91729333D01*
X77285333Y-92062666D01*
X77285333Y-91919809D01*
X77332952Y-91824571D01*
X77380571Y-91776952D01*
X77475809Y-91729333D01*
X77713904Y-91729333D01*
X77809142Y-91776952D01*
X77856761Y-91824571D01*
X77904380Y-91919809D01*
X77904380Y-92205523D01*
X77856761Y-92300761D01*
X77809142Y-92348380D01*
%TO.C,R1*%
X78482380Y-73066666D02*
X78006190Y-73400000D01*
X78482380Y-73638095D02*
X77482380Y-73638095D01*
X77482380Y-73257142D01*
X77530000Y-73161904D01*
X77577619Y-73114285D01*
X77672857Y-73066666D01*
X77815714Y-73066666D01*
X77910952Y-73114285D01*
X77958571Y-73161904D01*
X78006190Y-73257142D01*
X78006190Y-73638095D01*
X78482380Y-72114285D02*
X78482380Y-72685714D01*
X78482380Y-72400000D02*
X77482380Y-72400000D01*
X77625238Y-72495238D01*
X77720476Y-72590476D01*
X77768095Y-72685714D01*
%TO.C,R2*%
X90511333Y-61826380D02*
X90178000Y-61350190D01*
X89939904Y-61826380D02*
X89939904Y-60826380D01*
X90320857Y-60826380D01*
X90416095Y-60874000D01*
X90463714Y-60921619D01*
X90511333Y-61016857D01*
X90511333Y-61159714D01*
X90463714Y-61254952D01*
X90416095Y-61302571D01*
X90320857Y-61350190D01*
X89939904Y-61350190D01*
X90892285Y-60921619D02*
X90939904Y-60874000D01*
X91035142Y-60826380D01*
X91273238Y-60826380D01*
X91368476Y-60874000D01*
X91416095Y-60921619D01*
X91463714Y-61016857D01*
X91463714Y-61112095D01*
X91416095Y-61254952D01*
X90844666Y-61826380D01*
X91463714Y-61826380D01*
%TO.C,R3*%
X100180380Y-87796666D02*
X99704190Y-88130000D01*
X100180380Y-88368095D02*
X99180380Y-88368095D01*
X99180380Y-87987142D01*
X99228000Y-87891904D01*
X99275619Y-87844285D01*
X99370857Y-87796666D01*
X99513714Y-87796666D01*
X99608952Y-87844285D01*
X99656571Y-87891904D01*
X99704190Y-87987142D01*
X99704190Y-88368095D01*
X99180380Y-87463333D02*
X99180380Y-86844285D01*
X99561333Y-87177619D01*
X99561333Y-87034761D01*
X99608952Y-86939523D01*
X99656571Y-86891904D01*
X99751809Y-86844285D01*
X99989904Y-86844285D01*
X100085142Y-86891904D01*
X100132761Y-86939523D01*
X100180380Y-87034761D01*
X100180380Y-87320476D01*
X100132761Y-87415714D01*
X100085142Y-87463333D01*
%TO.C,R4*%
X100622380Y-87796666D02*
X100146190Y-88130000D01*
X100622380Y-88368095D02*
X99622380Y-88368095D01*
X99622380Y-87987142D01*
X99670000Y-87891904D01*
X99717619Y-87844285D01*
X99812857Y-87796666D01*
X99955714Y-87796666D01*
X100050952Y-87844285D01*
X100098571Y-87891904D01*
X100146190Y-87987142D01*
X100146190Y-88368095D01*
X99955714Y-86939523D02*
X100622380Y-86939523D01*
X99574761Y-87177619D02*
X100289047Y-87415714D01*
X100289047Y-86796666D01*
%TO.C,R5*%
X145392380Y-56300666D02*
X144916190Y-56634000D01*
X145392380Y-56872095D02*
X144392380Y-56872095D01*
X144392380Y-56491142D01*
X144440000Y-56395904D01*
X144487619Y-56348285D01*
X144582857Y-56300666D01*
X144725714Y-56300666D01*
X144820952Y-56348285D01*
X144868571Y-56395904D01*
X144916190Y-56491142D01*
X144916190Y-56872095D01*
X144392380Y-55395904D02*
X144392380Y-55872095D01*
X144868571Y-55919714D01*
X144820952Y-55872095D01*
X144773333Y-55776857D01*
X144773333Y-55538761D01*
X144820952Y-55443523D01*
X144868571Y-55395904D01*
X144963809Y-55348285D01*
X145201904Y-55348285D01*
X145297142Y-55395904D01*
X145344761Y-55443523D01*
X145392380Y-55538761D01*
X145392380Y-55776857D01*
X145344761Y-55872095D01*
X145297142Y-55919714D01*
%TO.C,R6*%
X145392380Y-51474666D02*
X144916190Y-51808000D01*
X145392380Y-52046095D02*
X144392380Y-52046095D01*
X144392380Y-51665142D01*
X144440000Y-51569904D01*
X144487619Y-51522285D01*
X144582857Y-51474666D01*
X144725714Y-51474666D01*
X144820952Y-51522285D01*
X144868571Y-51569904D01*
X144916190Y-51665142D01*
X144916190Y-52046095D01*
X144392380Y-50617523D02*
X144392380Y-50808000D01*
X144440000Y-50903238D01*
X144487619Y-50950857D01*
X144630476Y-51046095D01*
X144820952Y-51093714D01*
X145201904Y-51093714D01*
X145297142Y-51046095D01*
X145344761Y-50998476D01*
X145392380Y-50903238D01*
X145392380Y-50712761D01*
X145344761Y-50617523D01*
X145297142Y-50569904D01*
X145201904Y-50522285D01*
X144963809Y-50522285D01*
X144868571Y-50569904D01*
X144820952Y-50617523D01*
X144773333Y-50712761D01*
X144773333Y-50903238D01*
X144820952Y-50998476D01*
X144868571Y-51046095D01*
X144963809Y-51093714D01*
%TO.C,R7*%
X125768380Y-52744666D02*
X125292190Y-53078000D01*
X125768380Y-53316095D02*
X124768380Y-53316095D01*
X124768380Y-52935142D01*
X124816000Y-52839904D01*
X124863619Y-52792285D01*
X124958857Y-52744666D01*
X125101714Y-52744666D01*
X125196952Y-52792285D01*
X125244571Y-52839904D01*
X125292190Y-52935142D01*
X125292190Y-53316095D01*
X124768380Y-52411333D02*
X124768380Y-51744666D01*
X125768380Y-52173238D01*
%TO.C,R8*%
X125768380Y-57062666D02*
X125292190Y-57396000D01*
X125768380Y-57634095D02*
X124768380Y-57634095D01*
X124768380Y-57253142D01*
X124816000Y-57157904D01*
X124863619Y-57110285D01*
X124958857Y-57062666D01*
X125101714Y-57062666D01*
X125196952Y-57110285D01*
X125244571Y-57157904D01*
X125292190Y-57253142D01*
X125292190Y-57634095D01*
X125196952Y-56491238D02*
X125149333Y-56586476D01*
X125101714Y-56634095D01*
X125006476Y-56681714D01*
X124958857Y-56681714D01*
X124863619Y-56634095D01*
X124816000Y-56586476D01*
X124768380Y-56491238D01*
X124768380Y-56300761D01*
X124816000Y-56205523D01*
X124863619Y-56157904D01*
X124958857Y-56110285D01*
X125006476Y-56110285D01*
X125101714Y-56157904D01*
X125149333Y-56205523D01*
X125196952Y-56300761D01*
X125196952Y-56491238D01*
X125244571Y-56586476D01*
X125292190Y-56634095D01*
X125387428Y-56681714D01*
X125577904Y-56681714D01*
X125673142Y-56634095D01*
X125720761Y-56586476D01*
X125768380Y-56491238D01*
X125768380Y-56300761D01*
X125720761Y-56205523D01*
X125673142Y-56157904D01*
X125577904Y-56110285D01*
X125387428Y-56110285D01*
X125292190Y-56157904D01*
X125244571Y-56205523D01*
X125196952Y-56300761D01*
%TO.C,R9*%
X130135333Y-73952380D02*
X129802000Y-73476190D01*
X129563904Y-73952380D02*
X129563904Y-72952380D01*
X129944857Y-72952380D01*
X130040095Y-73000000D01*
X130087714Y-73047619D01*
X130135333Y-73142857D01*
X130135333Y-73285714D01*
X130087714Y-73380952D01*
X130040095Y-73428571D01*
X129944857Y-73476190D01*
X129563904Y-73476190D01*
X130611523Y-73952380D02*
X130802000Y-73952380D01*
X130897238Y-73904761D01*
X130944857Y-73857142D01*
X131040095Y-73714285D01*
X131087714Y-73523809D01*
X131087714Y-73142857D01*
X131040095Y-73047619D01*
X130992476Y-73000000D01*
X130897238Y-72952380D01*
X130706761Y-72952380D01*
X130611523Y-73000000D01*
X130563904Y-73047619D01*
X130516285Y-73142857D01*
X130516285Y-73380952D01*
X130563904Y-73476190D01*
X130611523Y-73523809D01*
X130706761Y-73571428D01*
X130897238Y-73571428D01*
X130992476Y-73523809D01*
X131040095Y-73476190D01*
X131087714Y-73380952D01*
%TO.C,R10*%
X116878380Y-61856857D02*
X116402190Y-62190190D01*
X116878380Y-62428285D02*
X115878380Y-62428285D01*
X115878380Y-62047333D01*
X115926000Y-61952095D01*
X115973619Y-61904476D01*
X116068857Y-61856857D01*
X116211714Y-61856857D01*
X116306952Y-61904476D01*
X116354571Y-61952095D01*
X116402190Y-62047333D01*
X116402190Y-62428285D01*
X116878380Y-60904476D02*
X116878380Y-61475904D01*
X116878380Y-61190190D02*
X115878380Y-61190190D01*
X116021238Y-61285428D01*
X116116476Y-61380666D01*
X116164095Y-61475904D01*
X115878380Y-60285428D02*
X115878380Y-60190190D01*
X115926000Y-60094952D01*
X115973619Y-60047333D01*
X116068857Y-59999714D01*
X116259333Y-59952095D01*
X116497428Y-59952095D01*
X116687904Y-59999714D01*
X116783142Y-60047333D01*
X116830761Y-60094952D01*
X116878380Y-60190190D01*
X116878380Y-60285428D01*
X116830761Y-60380666D01*
X116783142Y-60428285D01*
X116687904Y-60475904D01*
X116497428Y-60523523D01*
X116259333Y-60523523D01*
X116068857Y-60475904D01*
X115973619Y-60428285D01*
X115926000Y-60380666D01*
X115878380Y-60285428D01*
%TO.C,R11*%
X141770380Y-62110857D02*
X141294190Y-62444190D01*
X141770380Y-62682285D02*
X140770380Y-62682285D01*
X140770380Y-62301333D01*
X140818000Y-62206095D01*
X140865619Y-62158476D01*
X140960857Y-62110857D01*
X141103714Y-62110857D01*
X141198952Y-62158476D01*
X141246571Y-62206095D01*
X141294190Y-62301333D01*
X141294190Y-62682285D01*
X141770380Y-61158476D02*
X141770380Y-61729904D01*
X141770380Y-61444190D02*
X140770380Y-61444190D01*
X140913238Y-61539428D01*
X141008476Y-61634666D01*
X141056095Y-61729904D01*
X141770380Y-60206095D02*
X141770380Y-60777523D01*
X141770380Y-60491809D02*
X140770380Y-60491809D01*
X140913238Y-60587047D01*
X141008476Y-60682285D01*
X141056095Y-60777523D01*
%TO.C,R12*%
X141770380Y-66936857D02*
X141294190Y-67270190D01*
X141770380Y-67508285D02*
X140770380Y-67508285D01*
X140770380Y-67127333D01*
X140818000Y-67032095D01*
X140865619Y-66984476D01*
X140960857Y-66936857D01*
X141103714Y-66936857D01*
X141198952Y-66984476D01*
X141246571Y-67032095D01*
X141294190Y-67127333D01*
X141294190Y-67508285D01*
X141770380Y-65984476D02*
X141770380Y-66555904D01*
X141770380Y-66270190D02*
X140770380Y-66270190D01*
X140913238Y-66365428D01*
X141008476Y-66460666D01*
X141056095Y-66555904D01*
X140865619Y-65603523D02*
X140818000Y-65555904D01*
X140770380Y-65460666D01*
X140770380Y-65222571D01*
X140818000Y-65127333D01*
X140865619Y-65079714D01*
X140960857Y-65032095D01*
X141056095Y-65032095D01*
X141198952Y-65079714D01*
X141770380Y-65651142D01*
X141770380Y-65032095D01*
%TO.C,R13*%
X144630380Y-73032857D02*
X144154190Y-73366190D01*
X144630380Y-73604285D02*
X143630380Y-73604285D01*
X143630380Y-73223333D01*
X143678000Y-73128095D01*
X143725619Y-73080476D01*
X143820857Y-73032857D01*
X143963714Y-73032857D01*
X144058952Y-73080476D01*
X144106571Y-73128095D01*
X144154190Y-73223333D01*
X144154190Y-73604285D01*
X144630380Y-72080476D02*
X144630380Y-72651904D01*
X144630380Y-72366190D02*
X143630380Y-72366190D01*
X143773238Y-72461428D01*
X143868476Y-72556666D01*
X143916095Y-72651904D01*
X143630380Y-71747142D02*
X143630380Y-71128095D01*
X144011333Y-71461428D01*
X144011333Y-71318571D01*
X144058952Y-71223333D01*
X144106571Y-71175714D01*
X144201809Y-71128095D01*
X144439904Y-71128095D01*
X144535142Y-71175714D01*
X144582761Y-71223333D01*
X144630380Y-71318571D01*
X144630380Y-71604285D01*
X144582761Y-71699523D01*
X144535142Y-71747142D01*
%TO.C,R14*%
X126850380Y-84208857D02*
X126374190Y-84542190D01*
X126850380Y-84780285D02*
X125850380Y-84780285D01*
X125850380Y-84399333D01*
X125898000Y-84304095D01*
X125945619Y-84256476D01*
X126040857Y-84208857D01*
X126183714Y-84208857D01*
X126278952Y-84256476D01*
X126326571Y-84304095D01*
X126374190Y-84399333D01*
X126374190Y-84780285D01*
X126850380Y-83256476D02*
X126850380Y-83827904D01*
X126850380Y-83542190D02*
X125850380Y-83542190D01*
X125993238Y-83637428D01*
X126088476Y-83732666D01*
X126136095Y-83827904D01*
X126183714Y-82399333D02*
X126850380Y-82399333D01*
X125802761Y-82637428D02*
X126517047Y-82875523D01*
X126517047Y-82256476D01*
%TO.C,R15*%
X121704380Y-66532357D02*
X121228190Y-66865690D01*
X121704380Y-67103785D02*
X120704380Y-67103785D01*
X120704380Y-66722833D01*
X120752000Y-66627595D01*
X120799619Y-66579976D01*
X120894857Y-66532357D01*
X121037714Y-66532357D01*
X121132952Y-66579976D01*
X121180571Y-66627595D01*
X121228190Y-66722833D01*
X121228190Y-67103785D01*
X121704380Y-65579976D02*
X121704380Y-66151404D01*
X121704380Y-65865690D02*
X120704380Y-65865690D01*
X120847238Y-65960928D01*
X120942476Y-66056166D01*
X120990095Y-66151404D01*
X120704380Y-64675214D02*
X120704380Y-65151404D01*
X121180571Y-65199023D01*
X121132952Y-65151404D01*
X121085333Y-65056166D01*
X121085333Y-64818071D01*
X121132952Y-64722833D01*
X121180571Y-64675214D01*
X121275809Y-64627595D01*
X121513904Y-64627595D01*
X121609142Y-64675214D01*
X121656761Y-64722833D01*
X121704380Y-64818071D01*
X121704380Y-65056166D01*
X121656761Y-65151404D01*
X121609142Y-65199023D01*
%TO.C,R17*%
X116878380Y-71000857D02*
X116402190Y-71334190D01*
X116878380Y-71572285D02*
X115878380Y-71572285D01*
X115878380Y-71191333D01*
X115926000Y-71096095D01*
X115973619Y-71048476D01*
X116068857Y-71000857D01*
X116211714Y-71000857D01*
X116306952Y-71048476D01*
X116354571Y-71096095D01*
X116402190Y-71191333D01*
X116402190Y-71572285D01*
X116878380Y-70048476D02*
X116878380Y-70619904D01*
X116878380Y-70334190D02*
X115878380Y-70334190D01*
X116021238Y-70429428D01*
X116116476Y-70524666D01*
X116164095Y-70619904D01*
X115878380Y-69715142D02*
X115878380Y-69048476D01*
X116878380Y-69477047D01*
%TO.C,R18*%
X119738380Y-75826857D02*
X119262190Y-76160190D01*
X119738380Y-76398285D02*
X118738380Y-76398285D01*
X118738380Y-76017333D01*
X118786000Y-75922095D01*
X118833619Y-75874476D01*
X118928857Y-75826857D01*
X119071714Y-75826857D01*
X119166952Y-75874476D01*
X119214571Y-75922095D01*
X119262190Y-76017333D01*
X119262190Y-76398285D01*
X119738380Y-74874476D02*
X119738380Y-75445904D01*
X119738380Y-75160190D02*
X118738380Y-75160190D01*
X118881238Y-75255428D01*
X118976476Y-75350666D01*
X119024095Y-75445904D01*
X119166952Y-74303047D02*
X119119333Y-74398285D01*
X119071714Y-74445904D01*
X118976476Y-74493523D01*
X118928857Y-74493523D01*
X118833619Y-74445904D01*
X118786000Y-74398285D01*
X118738380Y-74303047D01*
X118738380Y-74112571D01*
X118786000Y-74017333D01*
X118833619Y-73969714D01*
X118928857Y-73922095D01*
X118976476Y-73922095D01*
X119071714Y-73969714D01*
X119119333Y-74017333D01*
X119166952Y-74112571D01*
X119166952Y-74303047D01*
X119214571Y-74398285D01*
X119262190Y-74445904D01*
X119357428Y-74493523D01*
X119547904Y-74493523D01*
X119643142Y-74445904D01*
X119690761Y-74398285D01*
X119738380Y-74303047D01*
X119738380Y-74112571D01*
X119690761Y-74017333D01*
X119643142Y-73969714D01*
X119547904Y-73922095D01*
X119357428Y-73922095D01*
X119262190Y-73969714D01*
X119214571Y-74017333D01*
X119166952Y-74112571D01*
%TO.C,R19*%
X133977142Y-79860380D02*
X133643809Y-79384190D01*
X133405714Y-79860380D02*
X133405714Y-78860380D01*
X133786666Y-78860380D01*
X133881904Y-78908000D01*
X133929523Y-78955619D01*
X133977142Y-79050857D01*
X133977142Y-79193714D01*
X133929523Y-79288952D01*
X133881904Y-79336571D01*
X133786666Y-79384190D01*
X133405714Y-79384190D01*
X134929523Y-79860380D02*
X134358095Y-79860380D01*
X134643809Y-79860380D02*
X134643809Y-78860380D01*
X134548571Y-79003238D01*
X134453333Y-79098476D01*
X134358095Y-79146095D01*
X135405714Y-79860380D02*
X135596190Y-79860380D01*
X135691428Y-79812761D01*
X135739047Y-79765142D01*
X135834285Y-79622285D01*
X135881904Y-79431809D01*
X135881904Y-79050857D01*
X135834285Y-78955619D01*
X135786666Y-78908000D01*
X135691428Y-78860380D01*
X135500952Y-78860380D01*
X135405714Y-78908000D01*
X135358095Y-78955619D01*
X135310476Y-79050857D01*
X135310476Y-79288952D01*
X135358095Y-79384190D01*
X135405714Y-79431809D01*
X135500952Y-79479428D01*
X135691428Y-79479428D01*
X135786666Y-79431809D01*
X135834285Y-79384190D01*
X135881904Y-79288952D01*
%TO.C,R20*%
X127038380Y-84208857D02*
X126562190Y-84542190D01*
X127038380Y-84780285D02*
X126038380Y-84780285D01*
X126038380Y-84399333D01*
X126086000Y-84304095D01*
X126133619Y-84256476D01*
X126228857Y-84208857D01*
X126371714Y-84208857D01*
X126466952Y-84256476D01*
X126514571Y-84304095D01*
X126562190Y-84399333D01*
X126562190Y-84780285D01*
X126133619Y-83827904D02*
X126086000Y-83780285D01*
X126038380Y-83685047D01*
X126038380Y-83446952D01*
X126086000Y-83351714D01*
X126133619Y-83304095D01*
X126228857Y-83256476D01*
X126324095Y-83256476D01*
X126466952Y-83304095D01*
X127038380Y-83875523D01*
X127038380Y-83256476D01*
X126038380Y-82637428D02*
X126038380Y-82542190D01*
X126086000Y-82446952D01*
X126133619Y-82399333D01*
X126228857Y-82351714D01*
X126419333Y-82304095D01*
X126657428Y-82304095D01*
X126847904Y-82351714D01*
X126943142Y-82399333D01*
X126990761Y-82446952D01*
X127038380Y-82542190D01*
X127038380Y-82637428D01*
X126990761Y-82732666D01*
X126943142Y-82780285D01*
X126847904Y-82827904D01*
X126657428Y-82875523D01*
X126419333Y-82875523D01*
X126228857Y-82827904D01*
X126133619Y-82780285D01*
X126086000Y-82732666D01*
X126038380Y-82637428D01*
%TO.C,R21*%
X133708380Y-83597357D02*
X133232190Y-83930690D01*
X133708380Y-84168785D02*
X132708380Y-84168785D01*
X132708380Y-83787833D01*
X132756000Y-83692595D01*
X132803619Y-83644976D01*
X132898857Y-83597357D01*
X133041714Y-83597357D01*
X133136952Y-83644976D01*
X133184571Y-83692595D01*
X133232190Y-83787833D01*
X133232190Y-84168785D01*
X132803619Y-83216404D02*
X132756000Y-83168785D01*
X132708380Y-83073547D01*
X132708380Y-82835452D01*
X132756000Y-82740214D01*
X132803619Y-82692595D01*
X132898857Y-82644976D01*
X132994095Y-82644976D01*
X133136952Y-82692595D01*
X133708380Y-83264023D01*
X133708380Y-82644976D01*
X133708380Y-81692595D02*
X133708380Y-82264023D01*
X133708380Y-81978309D02*
X132708380Y-81978309D01*
X132851238Y-82073547D01*
X132946476Y-82168785D01*
X132994095Y-82264023D01*
%TO.C,R22*%
X113322380Y-87764857D02*
X112846190Y-88098190D01*
X113322380Y-88336285D02*
X112322380Y-88336285D01*
X112322380Y-87955333D01*
X112370000Y-87860095D01*
X112417619Y-87812476D01*
X112512857Y-87764857D01*
X112655714Y-87764857D01*
X112750952Y-87812476D01*
X112798571Y-87860095D01*
X112846190Y-87955333D01*
X112846190Y-88336285D01*
X112417619Y-87383904D02*
X112370000Y-87336285D01*
X112322380Y-87241047D01*
X112322380Y-87002952D01*
X112370000Y-86907714D01*
X112417619Y-86860095D01*
X112512857Y-86812476D01*
X112608095Y-86812476D01*
X112750952Y-86860095D01*
X113322380Y-87431523D01*
X113322380Y-86812476D01*
X112417619Y-86431523D02*
X112370000Y-86383904D01*
X112322380Y-86288666D01*
X112322380Y-86050571D01*
X112370000Y-85955333D01*
X112417619Y-85907714D01*
X112512857Y-85860095D01*
X112608095Y-85860095D01*
X112750952Y-85907714D01*
X113322380Y-86479142D01*
X113322380Y-85860095D01*
%TO.C,R23*%
X133064642Y-96050380D02*
X132731309Y-95574190D01*
X132493214Y-96050380D02*
X132493214Y-95050380D01*
X132874166Y-95050380D01*
X132969404Y-95098000D01*
X133017023Y-95145619D01*
X133064642Y-95240857D01*
X133064642Y-95383714D01*
X133017023Y-95478952D01*
X132969404Y-95526571D01*
X132874166Y-95574190D01*
X132493214Y-95574190D01*
X133445595Y-95145619D02*
X133493214Y-95098000D01*
X133588452Y-95050380D01*
X133826547Y-95050380D01*
X133921785Y-95098000D01*
X133969404Y-95145619D01*
X134017023Y-95240857D01*
X134017023Y-95336095D01*
X133969404Y-95478952D01*
X133397976Y-96050380D01*
X134017023Y-96050380D01*
X134350357Y-95050380D02*
X134969404Y-95050380D01*
X134636071Y-95431333D01*
X134778928Y-95431333D01*
X134874166Y-95478952D01*
X134921785Y-95526571D01*
X134969404Y-95621809D01*
X134969404Y-95859904D01*
X134921785Y-95955142D01*
X134874166Y-96002761D01*
X134778928Y-96050380D01*
X134493214Y-96050380D01*
X134397976Y-96002761D01*
X134350357Y-95955142D01*
%TO.C,R24*%
X133708380Y-91574857D02*
X133232190Y-91908190D01*
X133708380Y-92146285D02*
X132708380Y-92146285D01*
X132708380Y-91765333D01*
X132756000Y-91670095D01*
X132803619Y-91622476D01*
X132898857Y-91574857D01*
X133041714Y-91574857D01*
X133136952Y-91622476D01*
X133184571Y-91670095D01*
X133232190Y-91765333D01*
X133232190Y-92146285D01*
X132803619Y-91193904D02*
X132756000Y-91146285D01*
X132708380Y-91051047D01*
X132708380Y-90812952D01*
X132756000Y-90717714D01*
X132803619Y-90670095D01*
X132898857Y-90622476D01*
X132994095Y-90622476D01*
X133136952Y-90670095D01*
X133708380Y-91241523D01*
X133708380Y-90622476D01*
X133041714Y-89765333D02*
X133708380Y-89765333D01*
X132660761Y-90003428D02*
X133375047Y-90241523D01*
X133375047Y-89622476D01*
%TO.C,R25*%
X123459642Y-95448380D02*
X123126309Y-94972190D01*
X122888214Y-95448380D02*
X122888214Y-94448380D01*
X123269166Y-94448380D01*
X123364404Y-94496000D01*
X123412023Y-94543619D01*
X123459642Y-94638857D01*
X123459642Y-94781714D01*
X123412023Y-94876952D01*
X123364404Y-94924571D01*
X123269166Y-94972190D01*
X122888214Y-94972190D01*
X123840595Y-94543619D02*
X123888214Y-94496000D01*
X123983452Y-94448380D01*
X124221547Y-94448380D01*
X124316785Y-94496000D01*
X124364404Y-94543619D01*
X124412023Y-94638857D01*
X124412023Y-94734095D01*
X124364404Y-94876952D01*
X123792976Y-95448380D01*
X124412023Y-95448380D01*
X125316785Y-94448380D02*
X124840595Y-94448380D01*
X124792976Y-94924571D01*
X124840595Y-94876952D01*
X124935833Y-94829333D01*
X125173928Y-94829333D01*
X125269166Y-94876952D01*
X125316785Y-94924571D01*
X125364404Y-95019809D01*
X125364404Y-95257904D01*
X125316785Y-95353142D01*
X125269166Y-95400761D01*
X125173928Y-95448380D01*
X124935833Y-95448380D01*
X124840595Y-95400761D01*
X124792976Y-95353142D01*
%TO.C,R26*%
X143375142Y-96050380D02*
X143041809Y-95574190D01*
X142803714Y-96050380D02*
X142803714Y-95050380D01*
X143184666Y-95050380D01*
X143279904Y-95098000D01*
X143327523Y-95145619D01*
X143375142Y-95240857D01*
X143375142Y-95383714D01*
X143327523Y-95478952D01*
X143279904Y-95526571D01*
X143184666Y-95574190D01*
X142803714Y-95574190D01*
X143756095Y-95145619D02*
X143803714Y-95098000D01*
X143898952Y-95050380D01*
X144137047Y-95050380D01*
X144232285Y-95098000D01*
X144279904Y-95145619D01*
X144327523Y-95240857D01*
X144327523Y-95336095D01*
X144279904Y-95478952D01*
X143708476Y-96050380D01*
X144327523Y-96050380D01*
X145184666Y-95050380D02*
X144994190Y-95050380D01*
X144898952Y-95098000D01*
X144851333Y-95145619D01*
X144756095Y-95288476D01*
X144708476Y-95478952D01*
X144708476Y-95859904D01*
X144756095Y-95955142D01*
X144803714Y-96002761D01*
X144898952Y-96050380D01*
X145089428Y-96050380D01*
X145184666Y-96002761D01*
X145232285Y-95955142D01*
X145279904Y-95859904D01*
X145279904Y-95621809D01*
X145232285Y-95526571D01*
X145184666Y-95478952D01*
X145089428Y-95431333D01*
X144898952Y-95431333D01*
X144803714Y-95478952D01*
X144756095Y-95526571D01*
X144708476Y-95621809D01*
%TO.C,R27*%
X112880380Y-87764857D02*
X112404190Y-88098190D01*
X112880380Y-88336285D02*
X111880380Y-88336285D01*
X111880380Y-87955333D01*
X111928000Y-87860095D01*
X111975619Y-87812476D01*
X112070857Y-87764857D01*
X112213714Y-87764857D01*
X112308952Y-87812476D01*
X112356571Y-87860095D01*
X112404190Y-87955333D01*
X112404190Y-88336285D01*
X111975619Y-87383904D02*
X111928000Y-87336285D01*
X111880380Y-87241047D01*
X111880380Y-87002952D01*
X111928000Y-86907714D01*
X111975619Y-86860095D01*
X112070857Y-86812476D01*
X112166095Y-86812476D01*
X112308952Y-86860095D01*
X112880380Y-87431523D01*
X112880380Y-86812476D01*
X111880380Y-86479142D02*
X111880380Y-85812476D01*
X112880380Y-86241047D01*
%TO.C,R28*%
X124498380Y-91574857D02*
X124022190Y-91908190D01*
X124498380Y-92146285D02*
X123498380Y-92146285D01*
X123498380Y-91765333D01*
X123546000Y-91670095D01*
X123593619Y-91622476D01*
X123688857Y-91574857D01*
X123831714Y-91574857D01*
X123926952Y-91622476D01*
X123974571Y-91670095D01*
X124022190Y-91765333D01*
X124022190Y-92146285D01*
X123593619Y-91193904D02*
X123546000Y-91146285D01*
X123498380Y-91051047D01*
X123498380Y-90812952D01*
X123546000Y-90717714D01*
X123593619Y-90670095D01*
X123688857Y-90622476D01*
X123784095Y-90622476D01*
X123926952Y-90670095D01*
X124498380Y-91241523D01*
X124498380Y-90622476D01*
X123926952Y-90051047D02*
X123879333Y-90146285D01*
X123831714Y-90193904D01*
X123736476Y-90241523D01*
X123688857Y-90241523D01*
X123593619Y-90193904D01*
X123546000Y-90146285D01*
X123498380Y-90051047D01*
X123498380Y-89860571D01*
X123546000Y-89765333D01*
X123593619Y-89717714D01*
X123688857Y-89670095D01*
X123736476Y-89670095D01*
X123831714Y-89717714D01*
X123879333Y-89765333D01*
X123926952Y-89860571D01*
X123926952Y-90051047D01*
X123974571Y-90146285D01*
X124022190Y-90193904D01*
X124117428Y-90241523D01*
X124307904Y-90241523D01*
X124403142Y-90193904D01*
X124450761Y-90146285D01*
X124498380Y-90051047D01*
X124498380Y-89860571D01*
X124450761Y-89765333D01*
X124403142Y-89717714D01*
X124307904Y-89670095D01*
X124117428Y-89670095D01*
X124022190Y-89717714D01*
X123974571Y-89765333D01*
X123926952Y-89860571D01*
%TO.C,SW1*%
X71818666Y-78830761D02*
X71961523Y-78878380D01*
X72199619Y-78878380D01*
X72294857Y-78830761D01*
X72342476Y-78783142D01*
X72390095Y-78687904D01*
X72390095Y-78592666D01*
X72342476Y-78497428D01*
X72294857Y-78449809D01*
X72199619Y-78402190D01*
X72009142Y-78354571D01*
X71913904Y-78306952D01*
X71866285Y-78259333D01*
X71818666Y-78164095D01*
X71818666Y-78068857D01*
X71866285Y-77973619D01*
X71913904Y-77926000D01*
X72009142Y-77878380D01*
X72247238Y-77878380D01*
X72390095Y-77926000D01*
X72723428Y-77878380D02*
X72961523Y-78878380D01*
X73152000Y-78164095D01*
X73342476Y-78878380D01*
X73580571Y-77878380D01*
X74485333Y-78878380D02*
X73913904Y-78878380D01*
X74199619Y-78878380D02*
X74199619Y-77878380D01*
X74104380Y-78021238D01*
X74009142Y-78116476D01*
X73913904Y-78164095D01*
%TO.C,U1*%
X92456095Y-60886380D02*
X92456095Y-61695904D01*
X92503714Y-61791142D01*
X92551333Y-61838761D01*
X92646571Y-61886380D01*
X92837047Y-61886380D01*
X92932285Y-61838761D01*
X92979904Y-61791142D01*
X93027523Y-61695904D01*
X93027523Y-60886380D01*
X94027523Y-61886380D02*
X93456095Y-61886380D01*
X93741809Y-61886380D02*
X93741809Y-60886380D01*
X93646571Y-61029238D01*
X93551333Y-61124476D01*
X93456095Y-61172095D01*
%TO.C,U2*%
X93218095Y-89982380D02*
X93218095Y-90791904D01*
X93265714Y-90887142D01*
X93313333Y-90934761D01*
X93408571Y-90982380D01*
X93599047Y-90982380D01*
X93694285Y-90934761D01*
X93741904Y-90887142D01*
X93789523Y-90791904D01*
X93789523Y-89982380D01*
X94218095Y-90077619D02*
X94265714Y-90030000D01*
X94360952Y-89982380D01*
X94599047Y-89982380D01*
X94694285Y-90030000D01*
X94741904Y-90077619D01*
X94789523Y-90172857D01*
X94789523Y-90268095D01*
X94741904Y-90410952D01*
X94170476Y-90982380D01*
X94789523Y-90982380D01*
%TO.C,U3*%
X136144095Y-48982380D02*
X136144095Y-49791904D01*
X136191714Y-49887142D01*
X136239333Y-49934761D01*
X136334571Y-49982380D01*
X136525047Y-49982380D01*
X136620285Y-49934761D01*
X136667904Y-49887142D01*
X136715523Y-49791904D01*
X136715523Y-48982380D01*
X137096476Y-48982380D02*
X137715523Y-48982380D01*
X137382190Y-49363333D01*
X137525047Y-49363333D01*
X137620285Y-49410952D01*
X137667904Y-49458571D01*
X137715523Y-49553809D01*
X137715523Y-49791904D01*
X137667904Y-49887142D01*
X137620285Y-49934761D01*
X137525047Y-49982380D01*
X137239333Y-49982380D01*
X137144095Y-49934761D01*
X137096476Y-49887142D01*
%TO.C,U4*%
X119126095Y-50506380D02*
X119126095Y-51315904D01*
X119173714Y-51411142D01*
X119221333Y-51458761D01*
X119316571Y-51506380D01*
X119507047Y-51506380D01*
X119602285Y-51458761D01*
X119649904Y-51411142D01*
X119697523Y-51315904D01*
X119697523Y-50506380D01*
X120602285Y-50839714D02*
X120602285Y-51506380D01*
X120364190Y-50458761D02*
X120126095Y-51173047D01*
X120745142Y-51173047D01*
%TO.C,U5*%
X142044380Y-87375904D02*
X142853904Y-87375904D01*
X142949142Y-87328285D01*
X142996761Y-87280666D01*
X143044380Y-87185428D01*
X143044380Y-86994952D01*
X142996761Y-86899714D01*
X142949142Y-86852095D01*
X142853904Y-86804476D01*
X142044380Y-86804476D01*
X142044380Y-85852095D02*
X142044380Y-86328285D01*
X142520571Y-86375904D01*
X142472952Y-86328285D01*
X142425333Y-86233047D01*
X142425333Y-85994952D01*
X142472952Y-85899714D01*
X142520571Y-85852095D01*
X142615809Y-85804476D01*
X142853904Y-85804476D01*
X142949142Y-85852095D01*
X142996761Y-85899714D01*
X143044380Y-85994952D01*
X143044380Y-86233047D01*
X142996761Y-86328285D01*
X142949142Y-86375904D01*
%TO.C,U6*%
X122232380Y-84581904D02*
X123041904Y-84581904D01*
X123137142Y-84534285D01*
X123184761Y-84486666D01*
X123232380Y-84391428D01*
X123232380Y-84200952D01*
X123184761Y-84105714D01*
X123137142Y-84058095D01*
X123041904Y-84010476D01*
X122232380Y-84010476D01*
X122232380Y-83105714D02*
X122232380Y-83296190D01*
X122280000Y-83391428D01*
X122327619Y-83439047D01*
X122470476Y-83534285D01*
X122660952Y-83581904D01*
X123041904Y-83581904D01*
X123137142Y-83534285D01*
X123184761Y-83486666D01*
X123232380Y-83391428D01*
X123232380Y-83200952D01*
X123184761Y-83105714D01*
X123137142Y-83058095D01*
X123041904Y-83010476D01*
X122803809Y-83010476D01*
X122708571Y-83058095D01*
X122660952Y-83105714D01*
X122613333Y-83200952D01*
X122613333Y-83391428D01*
X122660952Y-83486666D01*
X122708571Y-83534285D01*
X122803809Y-83581904D01*
%TO.C,U7*%
X129286095Y-59552380D02*
X129286095Y-60361904D01*
X129333714Y-60457142D01*
X129381333Y-60504761D01*
X129476571Y-60552380D01*
X129667047Y-60552380D01*
X129762285Y-60504761D01*
X129809904Y-60457142D01*
X129857523Y-60361904D01*
X129857523Y-59552380D01*
X130238476Y-59552380D02*
X130905142Y-59552380D01*
X130476571Y-60552380D01*
%TO.C,Y1*%
X74286190Y-75126190D02*
X74762380Y-75126190D01*
X73762380Y-75459523D02*
X74286190Y-75126190D01*
X73762380Y-74792857D01*
X74762380Y-73935714D02*
X74762380Y-74507142D01*
X74762380Y-74221428D02*
X73762380Y-74221428D01*
X73905238Y-74316666D01*
X74000476Y-74411904D01*
X74048095Y-74507142D01*
%TO.C,Y2*%
X76960190Y-58454190D02*
X77436380Y-58454190D01*
X76436380Y-58787523D02*
X76960190Y-58454190D01*
X76436380Y-58120857D01*
X76531619Y-57835142D02*
X76484000Y-57787523D01*
X76436380Y-57692285D01*
X76436380Y-57454190D01*
X76484000Y-57358952D01*
X76531619Y-57311333D01*
X76626857Y-57263714D01*
X76722095Y-57263714D01*
X76864952Y-57311333D01*
X77436380Y-57882761D01*
X77436380Y-57263714D01*
%TD*%
M02*
