M48
; DRILL file {KiCad (5.1.8)-1} date 11/24/20 16:34:53
; FORMAT={-:-/ absolute / inch / decimal}
; #@! TF.CreationDate,2020-11-24T16:34:53+09:00
; #@! TF.GenerationSoftware,Kicad,Pcbnew,(5.1.8)-1
; #@! TF.FileFunction,Plated,1,2,PTH
FMAT,2
INCH
T1C0.0157
T2C0.0335
%
G90
G05
T1
X2.7382Y-2.437
X3.0472Y-2.4311
X3.1102Y-2.6988
X3.2638Y-3.0669
X3.35Y-2.1
X3.3721Y-2.7779
X3.39Y-2.97
X3.44Y-2.44
X3.52Y-2.28
X3.53Y-2.57
X3.53Y-3.12
X3.55Y-2.87
X3.5585Y-2.7615
X3.56Y-3.03
X3.83Y-3.03
X3.84Y-3.8
X3.97Y-2.41
X3.97Y-2.55
X4.03Y-2.47
X4.42Y-3.1
X4.49Y-2.04
X4.52Y-3.53
X4.64Y-3.52
X4.68Y-3.64
X4.69Y-3.09
X4.77Y-3.13
X4.91Y-2.19
X4.925Y-2.075
X4.93Y-2.53
X5.02Y-3.5
X5.05Y-3.39
X5.1299Y-3.8346
X5.14Y-3.39
X5.14Y-3.47
X5.18Y-2.08
X5.27Y-3.33
X5.32Y-2.29
X5.32Y-3.45
X5.35Y-2.39
X5.37Y-2.52
X5.38Y-2.76
X5.38Y-3.2
X5.49Y-3.14
X5.55Y-3.21
T2
X2.88Y-3.49
X2.88Y-3.5884
X2.88Y-3.6869
X2.88Y-3.7853
X3.24Y-3.81
X3.3384Y-3.81
X3.5179Y-2.08
X3.6163Y-2.08
X3.7147Y-2.08
X3.8131Y-2.08
X3.9116Y-2.08
X4.01Y-2.08
T0
M30
